<svg xmlns="http://www.w3.org/2000/svg" xmlns:xlink="http://www.w3.org/1999/xlink" width="1920" zoomAndPan="magnify" viewBox="0 0 1440 809.999993" height="1080" preserveAspectRatio="xMidYMid meet" version="1.0"><defs><g/><clipPath id="204c9847fa"><path d="M 0 0 L 1440 0 L 1440 57.902344 L 0 57.902344 Z M 0 0 " clip-rule="nonzero"/></clipPath><clipPath id="cb4139fa64"><path d="M 0 0 L 1440 0 L 1440 57.902344 L 0 57.902344 Z M 0 0 " clip-rule="nonzero"/></clipPath><clipPath id="871da3a8eb"><rect x="0" width="1440" y="0" height="58"/></clipPath><clipPath id="4cad2dfb96"><path d="M 0 57.902344 L 1440 57.902344 L 1440 233.058594 L 0 233.058594 Z M 0 57.902344 " clip-rule="nonzero"/></clipPath><clipPath id="f3f59d505b"><path d="M 0 0.902344 L 1440 0.902344 L 1440 176.058594 L 0 176.058594 Z M 0 0.902344 " clip-rule="nonzero"/></clipPath><clipPath id="df2a0c408f"><rect x="0" width="1440" y="0" height="177"/></clipPath><clipPath id="10b51c6720"><path d="M 0 233.058594 L 1440 233.058594 L 1440 626.980469 L 0 626.980469 Z M 0 233.058594 " clip-rule="nonzero"/></clipPath><clipPath id="51c1c5ca5d"><path d="M 0 0.0585938 L 1440 0.0585938 L 1440 393.980469 L 0 393.980469 Z M 0 0.0585938 " clip-rule="nonzero"/></clipPath><clipPath id="e91d4ba98e"><rect x="0" width="1440" y="0" height="394"/></clipPath><clipPath id="77368f4253"><path d="M 63.167969 266.394531 L 163.039062 266.394531 L 163.039062 368.097656 L 63.167969 368.097656 Z M 63.167969 266.394531 " clip-rule="nonzero"/></clipPath><clipPath id="568b5d8fa5"><path d="M 0.167969 0.394531 L 100.039062 0.394531 L 100.039062 102.097656 L 0.167969 102.097656 Z M 0.167969 0.394531 " clip-rule="nonzero"/></clipPath><clipPath id="56cdd0c527"><rect x="0" width="101" y="0" height="103"/></clipPath><clipPath id="2acbfa1c54"><path d="M 63.167969 379.761719 L 163.039062 379.761719 L 163.039062 481.464844 L 63.167969 481.464844 Z M 63.167969 379.761719 " clip-rule="nonzero"/></clipPath><clipPath id="4509947854"><path d="M 0.167969 0.761719 L 100.039062 0.761719 L 100.039062 102.464844 L 0.167969 102.464844 Z M 0.167969 0.761719 " clip-rule="nonzero"/></clipPath><clipPath id="868166f06c"><rect x="0" width="101" y="0" height="103"/></clipPath><clipPath id="d9afe9b77b"><path d="M 63.167969 492.070312 L 163.039062 492.070312 L 163.039062 593.773438 L 63.167969 593.773438 Z M 63.167969 492.070312 " clip-rule="nonzero"/></clipPath><clipPath id="e22753823f"><path d="M 0.167969 0.0703125 L 100.039062 0.0703125 L 100.039062 101.773438 L 0.167969 101.773438 Z M 0.167969 0.0703125 " clip-rule="nonzero"/></clipPath><clipPath id="fad8afe199"><rect x="0" width="101" y="0" height="102"/></clipPath><clipPath id="2702f4fe82"><path d="M 0 626.980469 L 1440 626.980469 L 1440 810 L 0 810 Z M 0 626.980469 " clip-rule="nonzero"/></clipPath><clipPath id="febbcf1073"><path d="M 0 0.980469 L 1440 0.980469 L 1440 184 L 0 184 Z M 0 0.980469 " clip-rule="nonzero"/></clipPath><clipPath id="b996ed9d2d"><rect x="0" width="1440" y="0" height="184"/></clipPath><clipPath id="2f648f54e7"><rect x="0" width="109" y="0" height="34"/></clipPath><clipPath id="956d57d8aa"><rect x="0" width="141" y="0" height="49"/></clipPath><clipPath id="50b854ce6c"><rect x="0" width="58" y="0" height="79"/></clipPath><clipPath id="ad881473f0"><rect x="0" width="164" y="0" height="44"/></clipPath></defs><rect x="-144" width="1728" fill="#ffffff" y="-80.999999" height="971.999992" fill-opacity="1"/><rect x="-144" width="1728" fill="#ffffff" y="-80.999999" height="971.999992" fill-opacity="1"/><g clip-path="url(#204c9847fa)"><g transform="matrix(1, 0, 0, 1, 0, 0.000000000000039746)"><g clip-path="url(#871da3a8eb)"><g clip-path="url(#cb4139fa64)"><path fill="#dc9433" d="M 0 0 L 1440.054688 0 L 1440.054688 57.902344 L 0 57.902344 Z M 0 0 " fill-opacity="1" fill-rule="nonzero"/></g></g></g></g><g clip-path="url(#4cad2dfb96)"><g transform="matrix(1, 0, 0, 1, 0, 57)"><g clip-path="url(#df2a0c408f)"><g clip-path="url(#f3f59d505b)"><path fill="#5ce1e6" d="M 0 0.902344 L 1440.25 0.902344 L 1440.25 176.058594 L 0 176.058594 Z M 0 0.902344 " fill-opacity="1" fill-rule="nonzero"/></g></g></g></g><g clip-path="url(#10b51c6720)"><g transform="matrix(1, 0, 0, 1, 0, 233)"><g clip-path="url(#e91d4ba98e)"><g clip-path="url(#51c1c5ca5d)"><path fill="#8c52ff" d="M 0 0.0585938 L 1440.277344 0.0585938 L 1440.277344 393.980469 L 0 393.980469 Z M 0 0.0585938 " fill-opacity="1" fill-rule="nonzero"/></g></g></g></g><g clip-path="url(#77368f4253)"><g transform="matrix(1, 0, 0, 1, 63, 266)"><g clip-path="url(#56cdd0c527)"><g clip-path="url(#568b5d8fa5)"><path fill="#e2a9f1" d="M 0.167969 0.394531 L 100.039062 0.394531 L 100.039062 102.214844 L 0.167969 102.214844 Z M 0.167969 0.394531 " fill-opacity="1" fill-rule="nonzero"/></g></g></g></g><g clip-path="url(#2acbfa1c54)"><g transform="matrix(1, 0, 0, 1, 63, 379)"><g clip-path="url(#868166f06c)"><g clip-path="url(#4509947854)"><path fill="#e2a9f1" d="M 0.167969 0.761719 L 100.039062 0.761719 L 100.039062 102.582031 L 0.167969 102.582031 Z M 0.167969 0.761719 " fill-opacity="1" fill-rule="nonzero"/></g></g></g></g><g clip-path="url(#d9afe9b77b)"><g transform="matrix(1, 0, 0, 1, 63, 492)"><g clip-path="url(#fad8afe199)"><g clip-path="url(#e22753823f)"><path fill="#e2a9f1" d="M 0.167969 0.0703125 L 100.039062 0.0703125 L 100.039062 101.890625 L 0.167969 101.890625 Z M 0.167969 0.0703125 " fill-opacity="1" fill-rule="nonzero"/></g></g></g></g><g clip-path="url(#2702f4fe82)"><g transform="matrix(1, 0, 0, 1, 0, 626)"><g clip-path="url(#b996ed9d2d)"><g clip-path="url(#febbcf1073)"><path fill="#a6a6a6" d="M 0 0.980469 L 1439.683594 0.980469 L 1439.683594 220.882812 L 0 220.882812 Z M 0 0.980469 " fill-opacity="1" fill-rule="nonzero"/></g></g></g></g><g transform="matrix(1, 0, 0, 1, 1305, 12)"><g clip-path="url(#2f648f54e7)"><g fill="#000000" fill-opacity="1"><g transform="translate(0.575683, 25.918029)"><g><path d="M 2.265625 -16.515625 L 6.9375 -16.515625 C 9.125 -16.515625 10.707031 -16.1875 11.6875 -15.53125 C 12.664062 -14.875 13.15625 -13.835938 13.15625 -12.421875 C 13.15625 -11.441406 12.882812 -10.632812 12.34375 -10 C 11.800781 -9.363281 11.003906 -8.953125 9.953125 -8.765625 L 9.953125 -8.65625 C 12.460938 -8.226562 13.71875 -6.910156 13.71875 -4.703125 C 13.71875 -3.222656 13.21875 -2.066406 12.21875 -1.234375 C 11.21875 -0.410156 9.820312 0 8.03125 0 L 2.265625 0 Z M 4.1875 -9.453125 L 7.359375 -9.453125 C 8.710938 -9.453125 9.6875 -9.660156 10.28125 -10.078125 C 10.875 -10.503906 11.171875 -11.222656 11.171875 -12.234375 C 11.171875 -13.160156 10.835938 -13.828125 10.171875 -14.234375 C 9.515625 -14.648438 8.460938 -14.859375 7.015625 -14.859375 L 4.1875 -14.859375 Z M 4.1875 -7.8125 L 4.1875 -1.640625 L 7.640625 -1.640625 C 8.972656 -1.640625 9.972656 -1.894531 10.640625 -2.40625 C 11.316406 -2.925781 11.65625 -3.738281 11.65625 -4.84375 C 11.65625 -5.863281 11.3125 -6.613281 10.625 -7.09375 C 9.9375 -7.570312 8.890625 -7.8125 7.484375 -7.8125 Z M 4.1875 -7.8125 "/></g></g></g><g fill="#000000" fill-opacity="1"><g transform="translate(15.566115, 25.918029)"><g><path d="M 16.609375 -8.28125 C 16.609375 -5.632812 15.9375 -3.554688 14.59375 -2.046875 C 13.257812 -0.535156 11.40625 0.21875 9.03125 0.21875 C 6.59375 0.21875 4.710938 -0.519531 3.390625 -2 C 2.066406 -3.488281 1.40625 -5.59375 1.40625 -8.3125 C 1.40625 -11 2.066406 -13.082031 3.390625 -14.5625 C 4.722656 -16.039062 6.609375 -16.78125 9.046875 -16.78125 C 11.421875 -16.78125 13.273438 -16.023438 14.609375 -14.515625 C 15.941406 -13.015625 16.609375 -10.9375 16.609375 -8.28125 Z M 3.453125 -8.28125 C 3.453125 -6.039062 3.925781 -4.34375 4.875 -3.1875 C 5.832031 -2.03125 7.21875 -1.453125 9.03125 -1.453125 C 10.863281 -1.453125 12.242188 -2.03125 13.171875 -3.1875 C 14.109375 -4.34375 14.578125 -6.039062 14.578125 -8.28125 C 14.578125 -10.5 14.109375 -12.179688 13.171875 -13.328125 C 12.242188 -14.484375 10.867188 -15.0625 9.046875 -15.0625 C 7.222656 -15.0625 5.832031 -14.484375 4.875 -13.328125 C 3.925781 -12.171875 3.453125 -10.488281 3.453125 -8.28125 Z M 3.453125 -8.28125 "/></g></g></g><g fill="#000000" fill-opacity="1"><g transform="translate(33.584004, 25.918029)"><g><path d="M 7.359375 0 L 5.4375 0 L 5.4375 -14.8125 L 0.203125 -14.8125 L 0.203125 -16.515625 L 12.59375 -16.515625 L 12.59375 -14.8125 L 7.359375 -14.8125 Z M 7.359375 0 "/></g></g></g><g fill="#000000" fill-opacity="1"><g transform="translate(46.382918, 25.918029)"><g><path d="M 16.609375 -8.28125 C 16.609375 -5.632812 15.9375 -3.554688 14.59375 -2.046875 C 13.257812 -0.535156 11.40625 0.21875 9.03125 0.21875 C 6.59375 0.21875 4.710938 -0.519531 3.390625 -2 C 2.066406 -3.488281 1.40625 -5.59375 1.40625 -8.3125 C 1.40625 -11 2.066406 -13.082031 3.390625 -14.5625 C 4.722656 -16.039062 6.609375 -16.78125 9.046875 -16.78125 C 11.421875 -16.78125 13.273438 -16.023438 14.609375 -14.515625 C 15.941406 -13.015625 16.609375 -10.9375 16.609375 -8.28125 Z M 3.453125 -8.28125 C 3.453125 -6.039062 3.925781 -4.34375 4.875 -3.1875 C 5.832031 -2.03125 7.21875 -1.453125 9.03125 -1.453125 C 10.863281 -1.453125 12.242188 -2.03125 13.171875 -3.1875 C 14.109375 -4.34375 14.578125 -6.039062 14.578125 -8.28125 C 14.578125 -10.5 14.109375 -12.179688 13.171875 -13.328125 C 12.242188 -14.484375 10.867188 -15.0625 9.046875 -15.0625 C 7.222656 -15.0625 5.832031 -14.484375 4.875 -13.328125 C 3.925781 -12.171875 3.453125 -10.488281 3.453125 -8.28125 Z M 3.453125 -8.28125 "/></g></g></g><g fill="#000000" fill-opacity="1"><g transform="translate(64.400807, 25.918029)"><g><path d="M 15.171875 0 L 12.984375 0 L 3.953125 -13.859375 L 3.859375 -13.859375 C 3.984375 -12.234375 4.046875 -10.742188 4.046875 -9.390625 L 4.046875 0 L 2.265625 0 L 2.265625 -16.515625 L 4.4375 -16.515625 L 13.453125 -2.71875 L 13.53125 -2.71875 C 13.519531 -2.914062 13.488281 -3.566406 13.4375 -4.671875 C 13.382812 -5.773438 13.363281 -6.566406 13.375 -7.046875 L 13.375 -16.515625 L 15.171875 -16.515625 Z M 15.171875 0 "/></g></g></g><g fill="#000000" fill-opacity="1"><g transform="translate(81.842576, 25.918029)"><g><path d="M 11.484375 0 L 2.265625 0 L 2.265625 -16.515625 L 11.484375 -16.515625 L 11.484375 -14.8125 L 4.1875 -14.8125 L 4.1875 -9.484375 L 11.046875 -9.484375 L 11.046875 -7.796875 L 4.1875 -7.796875 L 4.1875 -1.71875 L 11.484375 -1.71875 Z M 11.484375 0 "/></g></g></g><g fill="#000000" fill-opacity="1"><g transform="translate(94.709269, 25.918029)"><g><path d="M 11.59375 -4.390625 C 11.59375 -2.941406 11.0625 -1.8125 10 -1 C 8.945312 -0.1875 7.519531 0.21875 5.71875 0.21875 C 3.757812 0.21875 2.253906 -0.03125 1.203125 -0.53125 L 1.203125 -2.390625 C 1.878906 -2.097656 2.613281 -1.867188 3.40625 -1.703125 C 4.207031 -1.535156 5 -1.453125 5.78125 -1.453125 C 7.0625 -1.453125 8.023438 -1.695312 8.671875 -2.1875 C 9.328125 -2.675781 9.65625 -3.351562 9.65625 -4.21875 C 9.65625 -4.789062 9.535156 -5.257812 9.296875 -5.625 C 9.066406 -5.988281 8.679688 -6.320312 8.140625 -6.625 C 7.609375 -6.9375 6.789062 -7.289062 5.6875 -7.6875 C 4.15625 -8.238281 3.054688 -8.890625 2.390625 -9.640625 C 1.734375 -10.390625 1.40625 -11.375 1.40625 -12.59375 C 1.40625 -13.863281 1.882812 -14.875 2.84375 -15.625 C 3.800781 -16.375 5.066406 -16.75 6.640625 -16.75 C 8.285156 -16.75 9.796875 -16.453125 11.171875 -15.859375 L 10.578125 -14.1875 C 9.210938 -14.757812 7.882812 -15.046875 6.59375 -15.046875 C 5.582031 -15.046875 4.789062 -14.828125 4.21875 -14.390625 C 3.644531 -13.953125 3.359375 -13.34375 3.359375 -12.5625 C 3.359375 -11.988281 3.460938 -11.519531 3.671875 -11.15625 C 3.878906 -10.789062 4.234375 -10.453125 4.734375 -10.140625 C 5.234375 -9.835938 6.003906 -9.503906 7.046875 -9.140625 C 8.773438 -8.523438 9.960938 -7.863281 10.609375 -7.15625 C 11.265625 -6.445312 11.59375 -5.523438 11.59375 -4.390625 Z M 11.59375 -4.390625 "/></g></g></g></g></g><g transform="matrix(1, 0, 0, 1, 643, 121)"><g clip-path="url(#956d57d8aa)"><g fill="#000000" fill-opacity="1"><g transform="translate(0.897005, 38.002355)"><g><path d="M 3.421875 -24.90625 L 10.453125 -24.90625 C 13.765625 -24.90625 16.15625 -24.410156 17.625 -23.421875 C 19.101562 -22.429688 19.84375 -20.867188 19.84375 -18.734375 C 19.84375 -17.265625 19.429688 -16.046875 18.609375 -15.078125 C 17.785156 -14.117188 16.585938 -13.5 15.015625 -13.21875 L 15.015625 -13.046875 C 18.796875 -12.398438 20.6875 -10.414062 20.6875 -7.09375 C 20.6875 -4.863281 19.929688 -3.125 18.421875 -1.875 C 16.921875 -0.625 14.816406 0 12.109375 0 L 3.421875 0 Z M 6.328125 -14.25 L 11.09375 -14.25 C 13.132812 -14.25 14.601562 -14.566406 15.5 -15.203125 C 16.394531 -15.847656 16.84375 -16.929688 16.84375 -18.453125 C 16.84375 -19.847656 16.34375 -20.851562 15.34375 -21.46875 C 14.34375 -22.09375 12.753906 -22.40625 10.578125 -22.40625 L 6.328125 -22.40625 Z M 6.328125 -11.796875 L 6.328125 -2.46875 L 11.515625 -2.46875 C 13.523438 -2.46875 15.035156 -2.851562 16.046875 -3.625 C 17.066406 -4.40625 17.578125 -5.628906 17.578125 -7.296875 C 17.578125 -8.835938 17.054688 -9.972656 16.015625 -10.703125 C 14.984375 -11.429688 13.40625 -11.796875 11.28125 -11.796875 Z M 6.328125 -11.796875 "/></g></g></g><g fill="#000000" fill-opacity="1"><g transform="translate(23.502995, 38.002355)"><g><path d="M 19.078125 0 L 15.984375 -7.921875 L 6 -7.921875 L 2.9375 0 L 0 0 L 9.84375 -25.015625 L 12.28125 -25.015625 L 22.078125 0 Z M 15.078125 -10.53125 L 12.1875 -18.25 C 11.8125 -19.226562 11.421875 -20.425781 11.015625 -21.84375 C 10.765625 -20.75 10.410156 -19.550781 9.953125 -18.25 L 7.015625 -10.53125 Z M 15.078125 -10.53125 "/></g></g></g><g fill="#000000" fill-opacity="1"><g transform="translate(45.580887, 38.002355)"><g><path d="M 22.875 0 L 19.578125 0 L 5.96875 -20.90625 L 5.828125 -20.90625 C 6.003906 -18.445312 6.09375 -16.195312 6.09375 -14.15625 L 6.09375 0 L 3.421875 0 L 3.421875 -24.90625 L 6.703125 -24.90625 L 20.265625 -4.09375 L 20.40625 -4.09375 C 20.382812 -4.394531 20.332031 -5.378906 20.25 -7.046875 C 20.175781 -8.710938 20.148438 -9.898438 20.171875 -10.609375 L 20.171875 -24.90625 L 22.875 -24.90625 Z M 22.875 0 "/></g></g></g><g fill="#000000" fill-opacity="1"><g transform="translate(71.883561, 38.002355)"><g><path d="M 22.875 0 L 19.578125 0 L 5.96875 -20.90625 L 5.828125 -20.90625 C 6.003906 -18.445312 6.09375 -16.195312 6.09375 -14.15625 L 6.09375 0 L 3.421875 0 L 3.421875 -24.90625 L 6.703125 -24.90625 L 20.265625 -4.09375 L 20.40625 -4.09375 C 20.382812 -4.394531 20.332031 -5.378906 20.25 -7.046875 C 20.175781 -8.710938 20.148438 -9.898438 20.171875 -10.609375 L 20.171875 -24.90625 L 22.875 -24.90625 Z M 22.875 0 "/></g></g></g><g fill="#000000" fill-opacity="1"><g transform="translate(98.186235, 38.002355)"><g><path d="M 17.3125 0 L 3.421875 0 L 3.421875 -24.90625 L 17.3125 -24.90625 L 17.3125 -22.328125 L 6.328125 -22.328125 L 6.328125 -14.3125 L 16.640625 -14.3125 L 16.640625 -11.75 L 6.328125 -11.75 L 6.328125 -2.59375 L 17.3125 -2.59375 Z M 17.3125 0 "/></g></g></g><g fill="#000000" fill-opacity="1"><g transform="translate(117.589568, 38.002355)"><g><path d="M 6.328125 -10.359375 L 6.328125 0 L 3.421875 0 L 3.421875 -24.90625 L 10.25 -24.90625 C 13.3125 -24.90625 15.570312 -24.316406 17.03125 -23.140625 C 18.488281 -21.972656 19.21875 -20.21875 19.21875 -17.875 C 19.21875 -14.582031 17.546875 -12.351562 14.203125 -11.1875 L 20.96875 0 L 17.546875 0 L 11.515625 -10.359375 Z M 6.328125 -12.84375 L 10.296875 -12.84375 C 12.335938 -12.84375 13.832031 -13.25 14.78125 -14.0625 C 15.738281 -14.875 16.21875 -16.09375 16.21875 -17.71875 C 16.21875 -19.363281 15.734375 -20.550781 14.765625 -21.28125 C 13.796875 -22.007812 12.234375 -22.375 10.078125 -22.375 L 6.328125 -22.375 Z M 6.328125 -12.84375 "/></g></g></g></g></g><g fill="#000000" fill-opacity="1"><g transform="translate(210.98465, 332.554486)"><g><path d="M 11.421875 -4.328125 C 11.421875 -2.898438 10.898438 -1.785156 9.859375 -0.984375 C 8.816406 -0.179688 7.40625 0.21875 5.625 0.21875 C 3.695312 0.21875 2.21875 -0.0234375 1.1875 -0.515625 L 1.1875 -2.34375 C 1.851562 -2.0625 2.578125 -1.835938 3.359375 -1.671875 C 4.148438 -1.515625 4.929688 -1.4375 5.703125 -1.4375 C 6.960938 -1.4375 7.910156 -1.675781 8.546875 -2.15625 C 9.179688 -2.632812 9.5 -3.300781 9.5 -4.15625 C 9.5 -4.71875 9.382812 -5.175781 9.15625 -5.53125 C 8.9375 -5.894531 8.5625 -6.226562 8.03125 -6.53125 C 7.5 -6.832031 6.691406 -7.175781 5.609375 -7.5625 C 4.097656 -8.101562 3.015625 -8.742188 2.359375 -9.484375 C 1.710938 -10.234375 1.390625 -11.207031 1.390625 -12.40625 C 1.390625 -13.65625 1.859375 -14.648438 2.796875 -15.390625 C 3.742188 -16.128906 4.992188 -16.5 6.546875 -16.5 C 8.160156 -16.5 9.648438 -16.207031 11.015625 -15.625 L 10.421875 -13.96875 C 9.078125 -14.53125 7.769531 -14.8125 6.5 -14.8125 C 5.5 -14.8125 4.71875 -14.597656 4.15625 -14.171875 C 3.59375 -13.742188 3.3125 -13.144531 3.3125 -12.375 C 3.3125 -11.8125 3.410156 -11.347656 3.609375 -10.984375 C 3.816406 -10.628906 4.164062 -10.300781 4.65625 -10 C 5.15625 -9.695312 5.914062 -9.363281 6.9375 -9 C 8.644531 -8.394531 9.816406 -7.742188 10.453125 -7.046875 C 11.097656 -6.347656 11.421875 -5.441406 11.421875 -4.328125 Z M 11.421875 -4.328125 "/></g></g></g><g fill="#000000" fill-opacity="1"><g transform="translate(223.48764, 332.554486)"><g><path d="M 12.46875 0 L 10.4375 -5.171875 L 3.921875 -5.171875 L 1.921875 0 L 0 0 L 6.4375 -16.34375 L 8.03125 -16.34375 L 14.421875 0 Z M 9.84375 -6.875 L 7.953125 -11.921875 C 7.710938 -12.554688 7.460938 -13.335938 7.203125 -14.265625 C 7.035156 -13.554688 6.800781 -12.773438 6.5 -11.921875 L 4.59375 -6.875 Z M 9.84375 -6.875 "/></g></g></g><g fill="#000000" fill-opacity="1"><g transform="translate(237.903899, 332.554486)"><g><path d="M 11.53125 -16.28125 L 13.5625 -16.28125 L 7.703125 0 L 5.828125 0 L 0 -16.28125 L 2 -16.28125 L 5.75 -5.75 C 6.175781 -4.53125 6.515625 -3.351562 6.765625 -2.21875 C 7.035156 -3.414062 7.382812 -4.613281 7.8125 -5.8125 Z M 11.53125 -16.28125 "/></g></g></g><g fill="#000000" fill-opacity="1"><g transform="translate(251.463637, 332.554486)"><g><path d="M 12.46875 0 L 10.4375 -5.171875 L 3.921875 -5.171875 L 1.921875 0 L 0 0 L 6.4375 -16.34375 L 8.03125 -16.34375 L 14.421875 0 Z M 9.84375 -6.875 L 7.953125 -11.921875 C 7.710938 -12.554688 7.460938 -13.335938 7.203125 -14.265625 C 7.035156 -13.554688 6.800781 -12.773438 6.5 -11.921875 L 4.59375 -6.875 Z M 9.84375 -6.875 "/></g></g></g><g fill="#000000" fill-opacity="1"><g transform="translate(265.879896, 332.554486)"><g><path d="M 4.125 -6.765625 L 4.125 0 L 2.234375 0 L 2.234375 -16.28125 L 6.703125 -16.28125 C 8.703125 -16.28125 10.175781 -15.894531 11.125 -15.125 C 12.082031 -14.363281 12.5625 -13.210938 12.5625 -11.671875 C 12.5625 -9.523438 11.46875 -8.070312 9.28125 -7.3125 L 13.703125 0 L 11.46875 0 L 7.53125 -6.765625 Z M 4.125 -8.390625 L 6.71875 -8.390625 C 8.0625 -8.390625 9.039062 -8.65625 9.65625 -9.1875 C 10.28125 -9.71875 10.59375 -10.515625 10.59375 -11.578125 C 10.59375 -12.648438 10.273438 -13.421875 9.640625 -13.890625 C 9.003906 -14.367188 7.988281 -14.609375 6.59375 -14.609375 L 4.125 -14.609375 Z M 4.125 -8.390625 "/></g></g></g><g fill="#000000" fill-opacity="1"><g transform="translate(279.962445, 332.554486)"><g><path d="M 2.234375 0 L 2.234375 -16.28125 L 4.125 -16.28125 L 4.125 0 Z M 2.234375 0 "/></g></g></g><g fill="#000000" fill-opacity="1"><g transform="translate(286.314053, 332.554486)"><g><path d="M 12.46875 0 L 10.4375 -5.171875 L 3.921875 -5.171875 L 1.921875 0 L 0 0 L 6.4375 -16.34375 L 8.03125 -16.34375 L 14.421875 0 Z M 9.84375 -6.875 L 7.953125 -11.921875 C 7.710938 -12.554688 7.460938 -13.335938 7.203125 -14.265625 C 7.035156 -13.554688 6.800781 -12.773438 6.5 -11.921875 L 4.59375 -6.875 Z M 9.84375 -6.875 "/></g></g></g><g fill="#000000" fill-opacity="1"><g transform="translate(300.730312, 332.554486)"><g><path d="M 14.953125 0 L 12.796875 0 L 3.890625 -13.65625 L 3.8125 -13.65625 C 3.925781 -12.050781 3.984375 -10.582031 3.984375 -9.25 L 3.984375 0 L 2.234375 0 L 2.234375 -16.28125 L 4.375 -16.28125 L 13.25 -2.671875 L 13.328125 -2.671875 C 13.316406 -2.867188 13.285156 -3.507812 13.234375 -4.59375 C 13.179688 -5.6875 13.160156 -6.46875 13.171875 -6.9375 L 13.171875 -16.28125 L 14.953125 -16.28125 Z M 14.953125 0 "/></g></g></g><g fill="#000000" fill-opacity="1"><g transform="translate(317.905238, 332.554486)"><g><path d="M 16.359375 -8.15625 C 16.359375 -5.550781 15.695312 -3.503906 14.375 -2.015625 C 13.0625 -0.523438 11.234375 0.21875 8.890625 0.21875 C 6.492188 0.21875 4.644531 -0.507812 3.34375 -1.96875 C 2.039062 -3.4375 1.390625 -5.507812 1.390625 -8.1875 C 1.390625 -10.832031 2.039062 -12.882812 3.34375 -14.34375 C 4.65625 -15.800781 6.515625 -16.53125 8.921875 -16.53125 C 11.253906 -16.53125 13.078125 -15.785156 14.390625 -14.296875 C 15.703125 -12.816406 16.359375 -10.769531 16.359375 -8.15625 Z M 3.390625 -8.15625 C 3.390625 -5.957031 3.859375 -4.285156 4.796875 -3.140625 C 5.742188 -2.003906 7.109375 -1.4375 8.890625 -1.4375 C 10.691406 -1.4375 12.050781 -2.003906 12.96875 -3.140625 C 13.894531 -4.273438 14.359375 -5.945312 14.359375 -8.15625 C 14.359375 -10.34375 13.898438 -12.003906 12.984375 -13.140625 C 12.066406 -14.273438 10.710938 -14.84375 8.921875 -14.84375 C 7.117188 -14.84375 5.742188 -14.269531 4.796875 -13.125 C 3.859375 -11.988281 3.390625 -10.332031 3.390625 -8.15625 Z M 3.390625 -8.15625 "/></g></g></g><g fill="#000000" fill-opacity="1"><g transform="translate(335.64747, 332.554486)"><g/></g></g><g fill="#000000" fill-opacity="1"><g transform="translate(341.565256, 332.554486)"><g><path d="M 4.125 0 L 2.234375 0 L 2.234375 -16.28125 L 11.3125 -16.28125 L 11.3125 -14.59375 L 4.125 -14.59375 L 4.125 -8.640625 L 10.875 -8.640625 L 10.875 -6.953125 L 4.125 -6.953125 Z M 4.125 0 "/></g></g></g><g fill="#000000" fill-opacity="1"><g transform="translate(353.322961, 332.554486)"><g><path d="M 4.125 -6.765625 L 4.125 0 L 2.234375 0 L 2.234375 -16.28125 L 6.703125 -16.28125 C 8.703125 -16.28125 10.175781 -15.894531 11.125 -15.125 C 12.082031 -14.363281 12.5625 -13.210938 12.5625 -11.671875 C 12.5625 -9.523438 11.46875 -8.070312 9.28125 -7.3125 L 13.703125 0 L 11.46875 0 L 7.53125 -6.765625 Z M 4.125 -8.390625 L 6.71875 -8.390625 C 8.0625 -8.390625 9.039062 -8.65625 9.65625 -9.1875 C 10.28125 -9.71875 10.59375 -10.515625 10.59375 -11.578125 C 10.59375 -12.648438 10.273438 -13.421875 9.640625 -13.890625 C 9.003906 -14.367188 7.988281 -14.609375 6.59375 -14.609375 L 4.125 -14.609375 Z M 4.125 -8.390625 "/></g></g></g><g fill="#000000" fill-opacity="1"><g transform="translate(367.40551, 332.554486)"><g><path d="M 12.46875 0 L 10.4375 -5.171875 L 3.921875 -5.171875 L 1.921875 0 L 0 0 L 6.4375 -16.34375 L 8.03125 -16.34375 L 14.421875 0 Z M 9.84375 -6.875 L 7.953125 -11.921875 C 7.710938 -12.554688 7.460938 -13.335938 7.203125 -14.265625 C 7.035156 -13.554688 6.800781 -12.773438 6.5 -11.921875 L 4.59375 -6.875 Z M 9.84375 -6.875 "/></g></g></g><g fill="#000000" fill-opacity="1"><g transform="translate(381.821769, 332.554486)"><g><path d="M 14.953125 0 L 12.796875 0 L 3.890625 -13.65625 L 3.8125 -13.65625 C 3.925781 -12.050781 3.984375 -10.582031 3.984375 -9.25 L 3.984375 0 L 2.234375 0 L 2.234375 -16.28125 L 4.375 -16.28125 L 13.25 -2.671875 L 13.328125 -2.671875 C 13.316406 -2.867188 13.285156 -3.507812 13.234375 -4.59375 C 13.179688 -5.6875 13.160156 -6.46875 13.171875 -6.9375 L 13.171875 -16.28125 L 14.953125 -16.28125 Z M 14.953125 0 "/></g></g></g><g fill="#000000" fill-opacity="1"><g transform="translate(398.996695, 332.554486)"><g><path d="M 9.203125 -14.8125 C 7.410156 -14.8125 6 -14.21875 4.96875 -13.03125 C 3.9375 -11.84375 3.421875 -10.210938 3.421875 -8.140625 C 3.421875 -6.003906 3.914062 -4.351562 4.90625 -3.1875 C 5.90625 -2.03125 7.332031 -1.453125 9.1875 -1.453125 C 10.320312 -1.453125 11.613281 -1.660156 13.0625 -2.078125 L 13.0625 -0.40625 C 11.9375 0.0078125 10.546875 0.21875 8.890625 0.21875 C 6.492188 0.21875 4.644531 -0.503906 3.34375 -1.953125 C 2.039062 -3.410156 1.390625 -5.476562 1.390625 -8.15625 C 1.390625 -9.832031 1.703125 -11.300781 2.328125 -12.5625 C 2.953125 -13.820312 3.859375 -14.789062 5.046875 -15.46875 C 6.234375 -16.15625 7.628906 -16.5 9.234375 -16.5 C 10.929688 -16.5 12.421875 -16.191406 13.703125 -15.578125 L 12.90625 -13.953125 C 11.664062 -14.523438 10.429688 -14.8125 9.203125 -14.8125 Z M 9.203125 -14.8125 "/></g></g></g><g fill="#000000" fill-opacity="1"><g transform="translate(413.36846, 332.554486)"><g><path d="M 2.234375 0 L 2.234375 -16.28125 L 4.125 -16.28125 L 4.125 0 Z M 2.234375 0 "/></g></g></g><g fill="#000000" fill-opacity="1"><g transform="translate(419.720067, 332.554486)"><g><path d="M 11.421875 -4.328125 C 11.421875 -2.898438 10.898438 -1.785156 9.859375 -0.984375 C 8.816406 -0.179688 7.40625 0.21875 5.625 0.21875 C 3.695312 0.21875 2.21875 -0.0234375 1.1875 -0.515625 L 1.1875 -2.34375 C 1.851562 -2.0625 2.578125 -1.835938 3.359375 -1.671875 C 4.148438 -1.515625 4.929688 -1.4375 5.703125 -1.4375 C 6.960938 -1.4375 7.910156 -1.675781 8.546875 -2.15625 C 9.179688 -2.632812 9.5 -3.300781 9.5 -4.15625 C 9.5 -4.71875 9.382812 -5.175781 9.15625 -5.53125 C 8.9375 -5.894531 8.5625 -6.226562 8.03125 -6.53125 C 7.5 -6.832031 6.691406 -7.175781 5.609375 -7.5625 C 4.097656 -8.101562 3.015625 -8.742188 2.359375 -9.484375 C 1.710938 -10.234375 1.390625 -11.207031 1.390625 -12.40625 C 1.390625 -13.65625 1.859375 -14.648438 2.796875 -15.390625 C 3.742188 -16.128906 4.992188 -16.5 6.546875 -16.5 C 8.160156 -16.5 9.648438 -16.207031 11.015625 -15.625 L 10.421875 -13.96875 C 9.078125 -14.53125 7.769531 -14.8125 6.5 -14.8125 C 5.5 -14.8125 4.71875 -14.597656 4.15625 -14.171875 C 3.59375 -13.742188 3.3125 -13.144531 3.3125 -12.375 C 3.3125 -11.8125 3.410156 -11.347656 3.609375 -10.984375 C 3.816406 -10.628906 4.164062 -10.300781 4.65625 -10 C 5.15625 -9.695312 5.914062 -9.363281 6.9375 -9 C 8.644531 -8.394531 9.816406 -7.742188 10.453125 -7.046875 C 11.097656 -6.347656 11.421875 -5.441406 11.421875 -4.328125 Z M 11.421875 -4.328125 "/></g></g></g><g fill="#000000" fill-opacity="1"><g transform="translate(432.223058, 332.554486)"><g><path d="M 9.203125 -14.8125 C 7.410156 -14.8125 6 -14.21875 4.96875 -13.03125 C 3.9375 -11.84375 3.421875 -10.210938 3.421875 -8.140625 C 3.421875 -6.003906 3.914062 -4.351562 4.90625 -3.1875 C 5.90625 -2.03125 7.332031 -1.453125 9.1875 -1.453125 C 10.320312 -1.453125 11.613281 -1.660156 13.0625 -2.078125 L 13.0625 -0.40625 C 11.9375 0.0078125 10.546875 0.21875 8.890625 0.21875 C 6.492188 0.21875 4.644531 -0.503906 3.34375 -1.953125 C 2.039062 -3.410156 1.390625 -5.476562 1.390625 -8.15625 C 1.390625 -9.832031 1.703125 -11.300781 2.328125 -12.5625 C 2.953125 -13.820312 3.859375 -14.789062 5.046875 -15.46875 C 6.234375 -16.15625 7.628906 -16.5 9.234375 -16.5 C 10.929688 -16.5 12.421875 -16.191406 13.703125 -15.578125 L 12.90625 -13.953125 C 11.664062 -14.523438 10.429688 -14.8125 9.203125 -14.8125 Z M 9.203125 -14.8125 "/></g></g></g><g fill="#000000" fill-opacity="1"><g transform="translate(446.594822, 332.554486)"><g><path d="M 16.359375 -8.15625 C 16.359375 -5.550781 15.695312 -3.503906 14.375 -2.015625 C 13.0625 -0.523438 11.234375 0.21875 8.890625 0.21875 C 6.492188 0.21875 4.644531 -0.507812 3.34375 -1.96875 C 2.039062 -3.4375 1.390625 -5.507812 1.390625 -8.1875 C 1.390625 -10.832031 2.039062 -12.882812 3.34375 -14.34375 C 4.65625 -15.800781 6.515625 -16.53125 8.921875 -16.53125 C 11.253906 -16.53125 13.078125 -15.785156 14.390625 -14.296875 C 15.703125 -12.816406 16.359375 -10.769531 16.359375 -8.15625 Z M 3.390625 -8.15625 C 3.390625 -5.957031 3.859375 -4.285156 4.796875 -3.140625 C 5.742188 -2.003906 7.109375 -1.4375 8.890625 -1.4375 C 10.691406 -1.4375 12.050781 -2.003906 12.96875 -3.140625 C 13.894531 -4.273438 14.359375 -5.945312 14.359375 -8.15625 C 14.359375 -10.34375 13.898438 -12.003906 12.984375 -13.140625 C 12.066406 -14.273438 10.710938 -14.84375 8.921875 -14.84375 C 7.117188 -14.84375 5.742188 -14.269531 4.796875 -13.125 C 3.859375 -11.988281 3.390625 -10.332031 3.390625 -8.15625 Z M 3.390625 -8.15625 "/></g></g></g><g transform="matrix(1, 0, 0, 1, 80, 282)"><g clip-path="url(#50b854ce6c)"><g fill="#000000" fill-opacity="1"><g transform="translate(1.48067, 21.287633)"><g><path d="M 3.40625 0 L 1.84375 0 L 1.84375 -13.421875 L 9.328125 -13.421875 L 9.328125 -12.03125 L 3.40625 -12.03125 L 3.40625 -7.125 L 8.96875 -7.125 L 8.96875 -5.734375 L 3.40625 -5.734375 Z M 3.40625 0 "/></g></g></g><g fill="#000000" fill-opacity="1"><g transform="translate(11.18187, 21.287633)"><g><path d="M 13.484375 -6.734375 C 13.484375 -4.578125 12.941406 -2.882812 11.859375 -1.65625 C 10.773438 -0.425781 9.265625 0.1875 7.328125 0.1875 C 5.359375 0.1875 3.832031 -0.414062 2.75 -1.625 C 1.675781 -2.832031 1.140625 -4.539062 1.140625 -6.75 C 1.140625 -8.925781 1.675781 -10.613281 2.75 -11.8125 C 3.832031 -13.019531 5.367188 -13.625 7.359375 -13.625 C 9.285156 -13.625 10.785156 -13.007812 11.859375 -11.78125 C 12.941406 -10.5625 13.484375 -8.878906 13.484375 -6.734375 Z M 2.796875 -6.734375 C 2.796875 -4.910156 3.179688 -3.53125 3.953125 -2.59375 C 4.734375 -1.65625 5.859375 -1.1875 7.328125 -1.1875 C 8.816406 -1.1875 9.941406 -1.65625 10.703125 -2.59375 C 11.460938 -3.53125 11.84375 -4.910156 11.84375 -6.734375 C 11.84375 -8.535156 11.460938 -9.898438 10.703125 -10.828125 C 9.953125 -11.765625 8.835938 -12.234375 7.359375 -12.234375 C 5.867188 -12.234375 4.734375 -11.765625 3.953125 -10.828125 C 3.179688 -9.890625 2.796875 -8.523438 2.796875 -6.734375 Z M 2.796875 -6.734375 "/></g></g></g><g fill="#000000" fill-opacity="1"><g transform="translate(25.820861, 21.287633)"><g><path d="M 5.96875 0 L 4.421875 0 L 4.421875 -12.03125 L 0.171875 -12.03125 L 0.171875 -13.421875 L 10.21875 -13.421875 L 10.21875 -12.03125 L 5.96875 -12.03125 Z M 5.96875 0 "/></g></g></g><g fill="#000000" fill-opacity="1"><g transform="translate(36.219593, 21.287633)"><g><path d="M 13.484375 -6.734375 C 13.484375 -4.578125 12.941406 -2.882812 11.859375 -1.65625 C 10.773438 -0.425781 9.265625 0.1875 7.328125 0.1875 C 5.359375 0.1875 3.832031 -0.414062 2.75 -1.625 C 1.675781 -2.832031 1.140625 -4.539062 1.140625 -6.75 C 1.140625 -8.925781 1.675781 -10.613281 2.75 -11.8125 C 3.832031 -13.019531 5.367188 -13.625 7.359375 -13.625 C 9.285156 -13.625 10.785156 -13.007812 11.859375 -11.78125 C 12.941406 -10.5625 13.484375 -8.878906 13.484375 -6.734375 Z M 2.796875 -6.734375 C 2.796875 -4.910156 3.179688 -3.53125 3.953125 -2.59375 C 4.734375 -1.65625 5.859375 -1.1875 7.328125 -1.1875 C 8.816406 -1.1875 9.941406 -1.65625 10.703125 -2.59375 C 11.460938 -3.53125 11.84375 -4.910156 11.84375 -6.734375 C 11.84375 -8.535156 11.460938 -9.898438 10.703125 -10.828125 C 9.953125 -11.765625 8.835938 -12.234375 7.359375 -12.234375 C 5.867188 -12.234375 4.734375 -11.765625 3.953125 -10.828125 C 3.179688 -9.890625 2.796875 -8.523438 2.796875 -6.734375 Z M 2.796875 -6.734375 "/></g></g></g><g fill="#000000" fill-opacity="1"><g transform="translate(50.862982, 21.287633)"><g/></g></g><g fill="#000000" fill-opacity="1"><g transform="translate(21.289251, 47.193108)"><g><path d="M 13.484375 -6.734375 C 13.484375 -4.578125 12.941406 -2.882812 11.859375 -1.65625 C 10.773438 -0.425781 9.265625 0.1875 7.328125 0.1875 C 5.359375 0.1875 3.832031 -0.414062 2.75 -1.625 C 1.675781 -2.832031 1.140625 -4.539062 1.140625 -6.75 C 1.140625 -8.925781 1.675781 -10.613281 2.75 -11.8125 C 3.832031 -13.019531 5.367188 -13.625 7.359375 -13.625 C 9.285156 -13.625 10.785156 -13.007812 11.859375 -11.78125 C 12.941406 -10.5625 13.484375 -8.878906 13.484375 -6.734375 Z M 2.796875 -6.734375 C 2.796875 -4.910156 3.179688 -3.53125 3.953125 -2.59375 C 4.734375 -1.65625 5.859375 -1.1875 7.328125 -1.1875 C 8.816406 -1.1875 9.941406 -1.65625 10.703125 -2.59375 C 11.460938 -3.53125 11.84375 -4.910156 11.84375 -6.734375 C 11.84375 -8.535156 11.460938 -9.898438 10.703125 -10.828125 C 9.953125 -11.765625 8.835938 -12.234375 7.359375 -12.234375 C 5.867188 -12.234375 4.734375 -11.765625 3.953125 -10.828125 C 3.179688 -9.890625 2.796875 -8.523438 2.796875 -6.734375 Z M 2.796875 -6.734375 "/></g></g></g><g fill="#000000" fill-opacity="1"><g transform="translate(5.895226, 73.098583)"><g><path d="M 13.484375 -6.734375 C 13.484375 -4.578125 12.941406 -2.882812 11.859375 -1.65625 C 10.773438 -0.425781 9.265625 0.1875 7.328125 0.1875 C 5.359375 0.1875 3.832031 -0.414062 2.75 -1.625 C 1.675781 -2.832031 1.140625 -4.539062 1.140625 -6.75 C 1.140625 -8.925781 1.675781 -10.613281 2.75 -11.8125 C 3.832031 -13.019531 5.367188 -13.625 7.359375 -13.625 C 9.285156 -13.625 10.785156 -13.007812 11.859375 -11.78125 C 12.941406 -10.5625 13.484375 -8.878906 13.484375 -6.734375 Z M 2.796875 -6.734375 C 2.796875 -4.910156 3.179688 -3.53125 3.953125 -2.59375 C 4.734375 -1.65625 5.859375 -1.1875 7.328125 -1.1875 C 8.816406 -1.1875 9.941406 -1.65625 10.703125 -2.59375 C 11.460938 -3.53125 11.84375 -4.910156 11.84375 -6.734375 C 11.84375 -8.535156 11.460938 -9.898438 10.703125 -10.828125 C 9.953125 -11.765625 8.835938 -12.234375 7.359375 -12.234375 C 5.867188 -12.234375 4.734375 -11.765625 3.953125 -10.828125 C 3.179688 -9.890625 2.796875 -8.523438 2.796875 -6.734375 Z M 2.796875 -6.734375 "/></g></g></g><g fill="#000000" fill-opacity="1"><g transform="translate(20.534217, 73.098583)"><g><path d="M 1.84375 -13.421875 L 5.640625 -13.421875 C 7.421875 -13.421875 8.707031 -13.15625 9.5 -12.625 C 10.289062 -12.09375 10.6875 -11.25 10.6875 -10.09375 C 10.6875 -9.300781 10.460938 -8.644531 10.015625 -8.125 C 9.578125 -7.613281 8.9375 -7.28125 8.09375 -7.125 L 8.09375 -7.03125 C 10.125 -6.675781 11.140625 -5.601562 11.140625 -3.8125 C 11.140625 -2.613281 10.734375 -1.675781 9.921875 -1 C 9.109375 -0.332031 7.976562 0 6.53125 0 L 1.84375 0 Z M 3.40625 -7.671875 L 5.96875 -7.671875 C 7.070312 -7.671875 7.863281 -7.84375 8.34375 -8.1875 C 8.832031 -8.53125 9.078125 -9.113281 9.078125 -9.9375 C 9.078125 -10.6875 8.804688 -11.226562 8.265625 -11.5625 C 7.734375 -11.894531 6.878906 -12.0625 5.703125 -12.0625 L 3.40625 -12.0625 Z M 3.40625 -6.34375 L 3.40625 -1.328125 L 6.203125 -1.328125 C 7.285156 -1.328125 8.097656 -1.535156 8.640625 -1.953125 C 9.191406 -2.378906 9.46875 -3.035156 9.46875 -3.921875 C 9.46875 -4.753906 9.1875 -5.363281 8.625 -5.75 C 8.070312 -6.144531 7.222656 -6.34375 6.078125 -6.34375 Z M 3.40625 -6.34375 "/></g></g></g><g fill="#000000" fill-opacity="1"><g transform="translate(32.713491, 73.098583)"><g><path d="M 3.40625 -5.578125 L 3.40625 0 L 1.84375 0 L 1.84375 -13.421875 L 5.53125 -13.421875 C 7.175781 -13.421875 8.390625 -13.101562 9.171875 -12.46875 C 9.960938 -11.84375 10.359375 -10.894531 10.359375 -9.625 C 10.359375 -7.851562 9.457031 -6.65625 7.65625 -6.03125 L 11.296875 0 L 9.453125 0 L 6.203125 -5.578125 Z M 3.40625 -6.921875 L 5.546875 -6.921875 C 6.648438 -6.921875 7.457031 -7.140625 7.96875 -7.578125 C 8.476562 -8.015625 8.734375 -8.671875 8.734375 -9.546875 C 8.734375 -10.429688 8.472656 -11.066406 7.953125 -11.453125 C 7.429688 -11.847656 6.59375 -12.046875 5.4375 -12.046875 L 3.40625 -12.046875 Z M 3.40625 -6.921875 "/></g></g></g><g fill="#000000" fill-opacity="1"><g transform="translate(44.332904, 73.098583)"><g><path d="M 10.28125 0 L 8.609375 -4.265625 L 3.234375 -4.265625 L 1.578125 0 L 0 0 L 5.3125 -13.46875 L 6.625 -13.46875 L 11.890625 0 Z M 8.125 -5.671875 L 6.5625 -9.828125 C 6.363281 -10.359375 6.15625 -11.003906 5.9375 -11.765625 C 5.800781 -11.179688 5.609375 -10.535156 5.359375 -9.828125 L 3.78125 -5.671875 Z M 8.125 -5.671875 "/></g></g></g></g></g><g transform="matrix(1, 0, 0, 1, 63, 656)"><g clip-path="url(#ad881473f0)"><g fill="#000000" fill-opacity="1"><g transform="translate(0.169339, 33.762012)"><g><path d="M 12.3125 -19.828125 C 9.925781 -19.828125 8.039062 -19.03125 6.65625 -17.4375 C 5.269531 -15.84375 4.578125 -13.660156 4.578125 -10.890625 C 4.578125 -8.035156 5.242188 -5.832031 6.578125 -4.28125 C 7.910156 -2.726562 9.8125 -1.953125 12.28125 -1.953125 C 13.800781 -1.953125 15.535156 -2.222656 17.484375 -2.765625 L 17.484375 -0.546875 C 15.972656 0.015625 14.113281 0.296875 11.90625 0.296875 C 8.695312 0.296875 6.21875 -0.675781 4.46875 -2.625 C 2.726562 -4.570312 1.859375 -7.335938 1.859375 -10.921875 C 1.859375 -13.160156 2.273438 -15.125 3.109375 -16.8125 C 3.953125 -18.5 5.164062 -19.796875 6.75 -20.703125 C 8.332031 -21.617188 10.195312 -22.078125 12.34375 -22.078125 C 14.625 -22.078125 16.617188 -21.660156 18.328125 -20.828125 L 17.265625 -18.65625 C 15.609375 -19.4375 13.957031 -19.828125 12.3125 -19.828125 Z M 12.3125 -19.828125 "/></g></g></g><g fill="#000000" fill-opacity="1"><g transform="translate(19.406052, 33.762012)"><g><path d="M 21.890625 -10.921875 C 21.890625 -7.429688 21.007812 -4.6875 19.25 -2.6875 C 17.488281 -0.695312 15.039062 0.296875 11.90625 0.296875 C 8.695312 0.296875 6.21875 -0.679688 4.46875 -2.640625 C 2.726562 -4.597656 1.859375 -7.367188 1.859375 -10.953125 C 1.859375 -14.492188 2.734375 -17.238281 4.484375 -19.1875 C 6.234375 -21.132812 8.710938 -22.109375 11.921875 -22.109375 C 15.054688 -22.109375 17.5 -21.113281 19.25 -19.125 C 21.007812 -17.144531 21.890625 -14.410156 21.890625 -10.921875 Z M 4.546875 -10.921875 C 4.546875 -7.972656 5.171875 -5.734375 6.421875 -4.203125 C 7.679688 -2.679688 9.507812 -1.921875 11.90625 -1.921875 C 14.3125 -1.921875 16.128906 -2.679688 17.359375 -4.203125 C 18.597656 -5.722656 19.21875 -7.960938 19.21875 -10.921875 C 19.21875 -13.847656 18.601562 -16.066406 17.375 -17.578125 C 16.144531 -19.097656 14.328125 -19.859375 11.921875 -19.859375 C 9.515625 -19.859375 7.679688 -19.09375 6.421875 -17.5625 C 5.171875 -16.039062 4.546875 -13.828125 4.546875 -10.921875 Z M 4.546875 -10.921875 "/></g></g></g><g fill="#000000" fill-opacity="1"><g transform="translate(43.154162, 33.762012)"><g><path d="M 20 0 L 17.109375 0 L 5.21875 -18.265625 L 5.09375 -18.265625 C 5.25 -16.128906 5.328125 -14.164062 5.328125 -12.375 L 5.328125 0 L 3 0 L 3 -21.765625 L 5.859375 -21.765625 L 17.71875 -3.578125 L 17.84375 -3.578125 C 17.820312 -3.835938 17.773438 -4.695312 17.703125 -6.15625 C 17.640625 -7.613281 17.617188 -8.65625 17.640625 -9.28125 L 17.640625 -21.765625 L 20 -21.765625 Z M 20 0 "/></g></g></g><g fill="#000000" fill-opacity="1"><g transform="translate(66.142928, 33.762012)"><g><path d="M 9.6875 0 L 7.15625 0 L 7.15625 -19.53125 L 0.265625 -19.53125 L 0.265625 -21.765625 L 16.59375 -21.765625 L 16.59375 -19.53125 L 9.6875 -19.53125 Z M 9.6875 0 "/></g></g></g><g fill="#000000" fill-opacity="1"><g transform="translate(83.012275, 33.762012)"><g><path d="M 16.6875 0 L 13.96875 -6.921875 L 5.25 -6.921875 L 2.5625 0 L 0 0 L 8.609375 -21.859375 L 10.734375 -21.859375 L 19.296875 0 Z M 13.1875 -9.203125 L 10.640625 -15.953125 C 10.316406 -16.804688 9.984375 -17.851562 9.640625 -19.09375 C 9.421875 -18.132812 9.109375 -17.085938 8.703125 -15.953125 L 6.140625 -9.203125 Z M 13.1875 -9.203125 "/></g></g></g><g fill="#000000" fill-opacity="1"><g transform="translate(102.308544, 33.762012)"><g><path d="M 12.3125 -19.828125 C 9.925781 -19.828125 8.039062 -19.03125 6.65625 -17.4375 C 5.269531 -15.84375 4.578125 -13.660156 4.578125 -10.890625 C 4.578125 -8.035156 5.242188 -5.832031 6.578125 -4.28125 C 7.910156 -2.726562 9.8125 -1.953125 12.28125 -1.953125 C 13.800781 -1.953125 15.535156 -2.222656 17.484375 -2.765625 L 17.484375 -0.546875 C 15.972656 0.015625 14.113281 0.296875 11.90625 0.296875 C 8.695312 0.296875 6.21875 -0.675781 4.46875 -2.625 C 2.726562 -4.570312 1.859375 -7.335938 1.859375 -10.921875 C 1.859375 -13.160156 2.273438 -15.125 3.109375 -16.8125 C 3.953125 -18.5 5.164062 -19.796875 6.75 -20.703125 C 8.332031 -21.617188 10.195312 -22.078125 12.34375 -22.078125 C 14.625 -22.078125 16.617188 -21.660156 18.328125 -20.828125 L 17.265625 -18.65625 C 15.609375 -19.4375 13.957031 -19.828125 12.3125 -19.828125 Z M 12.3125 -19.828125 "/></g></g></g><g fill="#000000" fill-opacity="1"><g transform="translate(121.545258, 33.762012)"><g><path d="M 9.6875 0 L 7.15625 0 L 7.15625 -19.53125 L 0.265625 -19.53125 L 0.265625 -21.765625 L 16.59375 -21.765625 L 16.59375 -19.53125 L 9.6875 -19.53125 Z M 9.6875 0 "/></g></g></g><g fill="#000000" fill-opacity="1"><g transform="translate(138.414604, 33.762012)"><g><path d="M 21.890625 -10.921875 C 21.890625 -7.429688 21.007812 -4.6875 19.25 -2.6875 C 17.488281 -0.695312 15.039062 0.296875 11.90625 0.296875 C 8.695312 0.296875 6.21875 -0.679688 4.46875 -2.640625 C 2.726562 -4.597656 1.859375 -7.367188 1.859375 -10.953125 C 1.859375 -14.492188 2.734375 -17.238281 4.484375 -19.1875 C 6.234375 -21.132812 8.710938 -22.109375 11.921875 -22.109375 C 15.054688 -22.109375 17.5 -21.113281 19.25 -19.125 C 21.007812 -17.144531 21.890625 -14.410156 21.890625 -10.921875 Z M 4.546875 -10.921875 C 4.546875 -7.972656 5.171875 -5.734375 6.421875 -4.203125 C 7.679688 -2.679688 9.507812 -1.921875 11.90625 -1.921875 C 14.3125 -1.921875 16.128906 -2.679688 17.359375 -4.203125 C 18.597656 -5.722656 19.21875 -7.960938 19.21875 -10.921875 C 19.21875 -13.847656 18.601562 -16.066406 17.375 -17.578125 C 16.144531 -19.097656 14.328125 -19.859375 11.921875 -19.859375 C 9.515625 -19.859375 7.679688 -19.09375 6.421875 -17.5625 C 5.171875 -16.039062 4.546875 -13.828125 4.546875 -10.921875 Z M 4.546875 -10.921875 "/></g></g></g></g></g><g fill="#000000" fill-opacity="1"><g transform="translate(207.507447, 443.062006)"><g><path d="M 2.234375 0 L 2.234375 -16.28125 L 4.125 -16.28125 L 4.125 -1.71875 L 11.3125 -1.71875 L 11.3125 0 Z M 2.234375 0 "/></g></g></g><g fill="#000000" fill-opacity="1"><g transform="translate(219.331894, 443.062006)"><g><path d="M 16.359375 -8.15625 C 16.359375 -5.550781 15.695312 -3.503906 14.375 -2.015625 C 13.0625 -0.523438 11.234375 0.21875 8.890625 0.21875 C 6.492188 0.21875 4.644531 -0.507812 3.34375 -1.96875 C 2.039062 -3.4375 1.390625 -5.507812 1.390625 -8.1875 C 1.390625 -10.832031 2.039062 -12.882812 3.34375 -14.34375 C 4.65625 -15.800781 6.515625 -16.53125 8.921875 -16.53125 C 11.253906 -16.53125 13.078125 -15.785156 14.390625 -14.296875 C 15.703125 -12.816406 16.359375 -10.769531 16.359375 -8.15625 Z M 3.390625 -8.15625 C 3.390625 -5.957031 3.859375 -4.285156 4.796875 -3.140625 C 5.742188 -2.003906 7.109375 -1.4375 8.890625 -1.4375 C 10.691406 -1.4375 12.050781 -2.003906 12.96875 -3.140625 C 13.894531 -4.273438 14.359375 -5.945312 14.359375 -8.15625 C 14.359375 -10.34375 13.898438 -12.003906 12.984375 -13.140625 C 12.066406 -14.273438 10.710938 -14.84375 8.921875 -14.84375 C 7.117188 -14.84375 5.742188 -14.269531 4.796875 -13.125 C 3.859375 -11.988281 3.390625 -10.332031 3.390625 -8.15625 Z M 3.390625 -8.15625 "/></g></g></g><g fill="#000000" fill-opacity="1"><g transform="translate(237.074127, 443.062006)"><g><path d="M 12.5625 -11.53125 C 12.5625 -9.882812 12 -8.617188 10.875 -7.734375 C 9.75 -6.847656 8.140625 -6.40625 6.046875 -6.40625 L 4.125 -6.40625 L 4.125 0 L 2.234375 0 L 2.234375 -16.28125 L 6.453125 -16.28125 C 10.523438 -16.28125 12.5625 -14.695312 12.5625 -11.53125 Z M 4.125 -8.03125 L 5.828125 -8.03125 C 7.503906 -8.03125 8.71875 -8.300781 9.46875 -8.84375 C 10.21875 -9.382812 10.59375 -10.25 10.59375 -11.4375 C 10.59375 -12.519531 10.238281 -13.320312 9.53125 -13.84375 C 8.832031 -14.375 7.738281 -14.640625 6.25 -14.640625 L 4.125 -14.640625 Z M 4.125 -8.03125 "/></g></g></g><g fill="#000000" fill-opacity="1"><g transform="translate(250.789595, 443.062006)"><g><path d="M 11.3125 0 L 2.234375 0 L 2.234375 -16.28125 L 11.3125 -16.28125 L 11.3125 -14.59375 L 4.125 -14.59375 L 4.125 -9.34375 L 10.875 -9.34375 L 10.875 -7.6875 L 4.125 -7.6875 L 4.125 -1.6875 L 11.3125 -1.6875 Z M 11.3125 0 "/></g></g></g><g fill="#000000" fill-opacity="1"><g transform="translate(263.459439, 443.062006)"><g><path d="M 12.09375 0 L 0.90625 0 L 0.90625 -1.484375 L 9.546875 -14.578125 L 1.1875 -14.578125 L 1.1875 -16.28125 L 11.859375 -16.28125 L 11.859375 -14.796875 L 3.21875 -1.71875 L 12.09375 -1.71875 Z M 12.09375 0 "/></g></g></g><g fill="#000000" fill-opacity="1"><g transform="translate(276.462994, 443.062006)"><g/></g></g><g fill="#000000" fill-opacity="1"><g transform="translate(282.38078, 443.062006)"><g><path d="M 2.234375 -16.28125 L 6.828125 -16.28125 C 8.992188 -16.28125 10.554688 -15.957031 11.515625 -15.3125 C 12.484375 -14.664062 12.96875 -13.644531 12.96875 -12.25 C 12.96875 -11.28125 12.695312 -10.484375 12.15625 -9.859375 C 11.625 -9.234375 10.84375 -8.828125 9.8125 -8.640625 L 9.8125 -8.53125 C 12.28125 -8.101562 13.515625 -6.800781 13.515625 -4.625 C 13.515625 -3.175781 13.019531 -2.039062 12.03125 -1.21875 C 11.050781 -0.40625 9.679688 0 7.921875 0 L 2.234375 0 Z M 4.125 -9.3125 L 7.25 -9.3125 C 8.582031 -9.3125 9.539062 -9.519531 10.125 -9.9375 C 10.71875 -10.351562 11.015625 -11.0625 11.015625 -12.0625 C 11.015625 -12.96875 10.6875 -13.625 10.03125 -14.03125 C 9.375 -14.4375 8.332031 -14.640625 6.90625 -14.640625 L 4.125 -14.640625 Z M 4.125 -7.703125 L 4.125 -1.609375 L 7.53125 -1.609375 C 8.84375 -1.609375 9.828125 -1.863281 10.484375 -2.375 C 11.148438 -2.882812 11.484375 -3.679688 11.484375 -4.765625 C 11.484375 -5.773438 11.144531 -6.515625 10.46875 -6.984375 C 9.789062 -7.460938 8.757812 -7.703125 7.375 -7.703125 Z M 4.125 -7.703125 "/></g></g></g><g fill="#000000" fill-opacity="1"><g transform="translate(297.141872, 443.062006)"><g><path d="M 4.125 -6.765625 L 4.125 0 L 2.234375 0 L 2.234375 -16.28125 L 6.703125 -16.28125 C 8.703125 -16.28125 10.175781 -15.894531 11.125 -15.125 C 12.082031 -14.363281 12.5625 -13.210938 12.5625 -11.671875 C 12.5625 -9.523438 11.46875 -8.070312 9.28125 -7.3125 L 13.703125 0 L 11.46875 0 L 7.53125 -6.765625 Z M 4.125 -8.390625 L 6.71875 -8.390625 C 8.0625 -8.390625 9.039062 -8.65625 9.65625 -9.1875 C 10.28125 -9.71875 10.59375 -10.515625 10.59375 -11.578125 C 10.59375 -12.648438 10.273438 -13.421875 9.640625 -13.890625 C 9.003906 -14.367188 7.988281 -14.609375 6.59375 -14.609375 L 4.125 -14.609375 Z M 4.125 -8.390625 "/></g></g></g><g fill="#000000" fill-opacity="1"><g transform="translate(311.224421, 443.062006)"><g><path d="M 11.3125 0 L 2.234375 0 L 2.234375 -16.28125 L 11.3125 -16.28125 L 11.3125 -14.59375 L 4.125 -14.59375 L 4.125 -9.34375 L 10.875 -9.34375 L 10.875 -7.6875 L 4.125 -7.6875 L 4.125 -1.6875 L 11.3125 -1.6875 Z M 11.3125 0 "/></g></g></g><g fill="#000000" fill-opacity="1"><g transform="translate(323.894266, 443.062006)"><g><path d="M 14.953125 0 L 12.796875 0 L 3.890625 -13.65625 L 3.8125 -13.65625 C 3.925781 -12.050781 3.984375 -10.582031 3.984375 -9.25 L 3.984375 0 L 2.234375 0 L 2.234375 -16.28125 L 4.375 -16.28125 L 13.25 -2.671875 L 13.328125 -2.671875 C 13.316406 -2.867188 13.285156 -3.507812 13.234375 -4.59375 C 13.179688 -5.6875 13.160156 -6.46875 13.171875 -6.9375 L 13.171875 -16.28125 L 14.953125 -16.28125 Z M 14.953125 0 "/></g></g></g><g fill="#000000" fill-opacity="1"><g transform="translate(341.069192, 443.062006)"><g><path d="M 15.234375 -8.296875 C 15.234375 -5.609375 14.503906 -3.550781 13.046875 -2.125 C 11.585938 -0.707031 9.488281 0 6.75 0 L 2.234375 0 L 2.234375 -16.28125 L 7.21875 -16.28125 C 9.75 -16.28125 11.71875 -15.578125 13.125 -14.171875 C 14.53125 -12.765625 15.234375 -10.804688 15.234375 -8.296875 Z M 13.21875 -8.21875 C 13.21875 -10.34375 12.6875 -11.941406 11.625 -13.015625 C 10.5625 -14.097656 8.976562 -14.640625 6.875 -14.640625 L 4.125 -14.640625 L 4.125 -1.640625 L 6.4375 -1.640625 C 8.6875 -1.640625 10.378906 -2.191406 11.515625 -3.296875 C 12.648438 -4.410156 13.21875 -6.050781 13.21875 -8.21875 Z M 13.21875 -8.21875 "/></g></g></g><g fill="#000000" fill-opacity="1"><g transform="translate(357.676811, 443.062006)"><g><path d="M 12.46875 0 L 10.4375 -5.171875 L 3.921875 -5.171875 L 1.921875 0 L 0 0 L 6.4375 -16.34375 L 8.03125 -16.34375 L 14.421875 0 Z M 9.84375 -6.875 L 7.953125 -11.921875 C 7.710938 -12.554688 7.460938 -13.335938 7.203125 -14.265625 C 7.035156 -13.554688 6.800781 -12.773438 6.5 -11.921875 L 4.59375 -6.875 Z M 9.84375 -6.875 "/></g></g></g><g fill="#000000" fill-opacity="1"><g transform="translate(204.145044, 553.252144)"><g><path d="M 11.421875 -4.328125 C 11.421875 -2.898438 10.898438 -1.785156 9.859375 -0.984375 C 8.816406 -0.179688 7.40625 0.21875 5.625 0.21875 C 3.695312 0.21875 2.21875 -0.0234375 1.1875 -0.515625 L 1.1875 -2.34375 C 1.851562 -2.0625 2.578125 -1.835938 3.359375 -1.671875 C 4.148438 -1.515625 4.929688 -1.4375 5.703125 -1.4375 C 6.960938 -1.4375 7.910156 -1.675781 8.546875 -2.15625 C 9.179688 -2.632812 9.5 -3.300781 9.5 -4.15625 C 9.5 -4.71875 9.382812 -5.175781 9.15625 -5.53125 C 8.9375 -5.894531 8.5625 -6.226562 8.03125 -6.53125 C 7.5 -6.832031 6.691406 -7.175781 5.609375 -7.5625 C 4.097656 -8.101562 3.015625 -8.742188 2.359375 -9.484375 C 1.710938 -10.234375 1.390625 -11.207031 1.390625 -12.40625 C 1.390625 -13.65625 1.859375 -14.648438 2.796875 -15.390625 C 3.742188 -16.128906 4.992188 -16.5 6.546875 -16.5 C 8.160156 -16.5 9.648438 -16.207031 11.015625 -15.625 L 10.421875 -13.96875 C 9.078125 -14.53125 7.769531 -14.8125 6.5 -14.8125 C 5.5 -14.8125 4.71875 -14.597656 4.15625 -14.171875 C 3.59375 -13.742188 3.3125 -13.144531 3.3125 -12.375 C 3.3125 -11.8125 3.410156 -11.347656 3.609375 -10.984375 C 3.816406 -10.628906 4.164062 -10.300781 4.65625 -10 C 5.15625 -9.695312 5.914062 -9.363281 6.9375 -9 C 8.644531 -8.394531 9.816406 -7.742188 10.453125 -7.046875 C 11.097656 -6.347656 11.421875 -5.441406 11.421875 -4.328125 Z M 11.421875 -4.328125 "/></g></g></g><g fill="#000000" fill-opacity="1"><g transform="translate(216.648034, 553.252144)"><g><path d="M 14.53125 -16.28125 L 14.53125 -5.75 C 14.53125 -3.882812 13.96875 -2.421875 12.84375 -1.359375 C 11.726562 -0.304688 10.1875 0.21875 8.21875 0.21875 C 6.257812 0.21875 4.742188 -0.3125 3.671875 -1.375 C 2.609375 -2.445312 2.078125 -3.914062 2.078125 -5.78125 L 2.078125 -16.28125 L 3.96875 -16.28125 L 3.96875 -5.65625 C 3.96875 -4.300781 4.335938 -3.257812 5.078125 -2.53125 C 5.816406 -1.800781 6.90625 -1.4375 8.34375 -1.4375 C 9.71875 -1.4375 10.773438 -1.800781 11.515625 -2.53125 C 12.265625 -3.257812 12.640625 -4.304688 12.640625 -5.671875 L 12.640625 -16.28125 Z M 14.53125 -16.28125 "/></g></g></g><g fill="#000000" fill-opacity="1"><g transform="translate(233.233407, 553.252144)"><g><path d="M 12.46875 0 L 10.4375 -5.171875 L 3.921875 -5.171875 L 1.921875 0 L 0 0 L 6.4375 -16.34375 L 8.03125 -16.34375 L 14.421875 0 Z M 9.84375 -6.875 L 7.953125 -11.921875 C 7.710938 -12.554688 7.460938 -13.335938 7.203125 -14.265625 C 7.035156 -13.554688 6.800781 -12.773438 6.5 -11.921875 L 4.59375 -6.875 Z M 9.84375 -6.875 "/></g></g></g><g fill="#000000" fill-opacity="1"><g transform="translate(247.649666, 553.252144)"><g><path d="M 4.125 -6.765625 L 4.125 0 L 2.234375 0 L 2.234375 -16.28125 L 6.703125 -16.28125 C 8.703125 -16.28125 10.175781 -15.894531 11.125 -15.125 C 12.082031 -14.363281 12.5625 -13.210938 12.5625 -11.671875 C 12.5625 -9.523438 11.46875 -8.070312 9.28125 -7.3125 L 13.703125 0 L 11.46875 0 L 7.53125 -6.765625 Z M 4.125 -8.390625 L 6.71875 -8.390625 C 8.0625 -8.390625 9.039062 -8.65625 9.65625 -9.1875 C 10.28125 -9.71875 10.59375 -10.515625 10.59375 -11.578125 C 10.59375 -12.648438 10.273438 -13.421875 9.640625 -13.890625 C 9.003906 -14.367188 7.988281 -14.609375 6.59375 -14.609375 L 4.125 -14.609375 Z M 4.125 -8.390625 "/></g></g></g><g fill="#000000" fill-opacity="1"><g transform="translate(261.732215, 553.252144)"><g><path d="M 11.3125 0 L 2.234375 0 L 2.234375 -16.28125 L 11.3125 -16.28125 L 11.3125 -14.59375 L 4.125 -14.59375 L 4.125 -9.34375 L 10.875 -9.34375 L 10.875 -7.6875 L 4.125 -7.6875 L 4.125 -1.6875 L 11.3125 -1.6875 Z M 11.3125 0 "/></g></g></g><g fill="#000000" fill-opacity="1"><g transform="translate(274.40206, 553.252144)"><g><path d="M 12.09375 0 L 0.90625 0 L 0.90625 -1.484375 L 9.546875 -14.578125 L 1.1875 -14.578125 L 1.1875 -16.28125 L 11.859375 -16.28125 L 11.859375 -14.796875 L 3.21875 -1.71875 L 12.09375 -1.71875 Z M 12.09375 0 "/></g></g></g><g fill="#000000" fill-opacity="1"><g transform="translate(287.405614, 553.252144)"><g/></g></g><g fill="#000000" fill-opacity="1"><g transform="translate(293.3234, 553.252144)"><g><path d="M 9.203125 -14.8125 C 7.410156 -14.8125 6 -14.21875 4.96875 -13.03125 C 3.9375 -11.84375 3.421875 -10.210938 3.421875 -8.140625 C 3.421875 -6.003906 3.914062 -4.351562 4.90625 -3.1875 C 5.90625 -2.03125 7.332031 -1.453125 9.1875 -1.453125 C 10.320312 -1.453125 11.613281 -1.660156 13.0625 -2.078125 L 13.0625 -0.40625 C 11.9375 0.0078125 10.546875 0.21875 8.890625 0.21875 C 6.492188 0.21875 4.644531 -0.503906 3.34375 -1.953125 C 2.039062 -3.410156 1.390625 -5.476562 1.390625 -8.15625 C 1.390625 -9.832031 1.703125 -11.300781 2.328125 -12.5625 C 2.953125 -13.820312 3.859375 -14.789062 5.046875 -15.46875 C 6.234375 -16.15625 7.628906 -16.5 9.234375 -16.5 C 10.929688 -16.5 12.421875 -16.191406 13.703125 -15.578125 L 12.90625 -13.953125 C 11.664062 -14.523438 10.429688 -14.8125 9.203125 -14.8125 Z M 9.203125 -14.8125 "/></g></g></g><g fill="#000000" fill-opacity="1"><g transform="translate(307.695165, 553.252144)"><g><path d="M 12.46875 0 L 10.4375 -5.171875 L 3.921875 -5.171875 L 1.921875 0 L 0 0 L 6.4375 -16.34375 L 8.03125 -16.34375 L 14.421875 0 Z M 9.84375 -6.875 L 7.953125 -11.921875 C 7.710938 -12.554688 7.460938 -13.335938 7.203125 -14.265625 C 7.035156 -13.554688 6.800781 -12.773438 6.5 -11.921875 L 4.59375 -6.875 Z M 9.84375 -6.875 "/></g></g></g><g fill="#000000" fill-opacity="1"><g transform="translate(322.111424, 553.252144)"><g><path d="M 14.953125 0 L 12.796875 0 L 3.890625 -13.65625 L 3.8125 -13.65625 C 3.925781 -12.050781 3.984375 -10.582031 3.984375 -9.25 L 3.984375 0 L 2.234375 0 L 2.234375 -16.28125 L 4.375 -16.28125 L 13.25 -2.671875 L 13.328125 -2.671875 C 13.316406 -2.867188 13.285156 -3.507812 13.234375 -4.59375 C 13.179688 -5.6875 13.160156 -6.46875 13.171875 -6.9375 L 13.171875 -16.28125 L 14.953125 -16.28125 Z M 14.953125 0 "/></g></g></g><g fill="#000000" fill-opacity="1"><g transform="translate(339.28635, 553.252144)"><g><path d="M 15.234375 -8.296875 C 15.234375 -5.609375 14.503906 -3.550781 13.046875 -2.125 C 11.585938 -0.707031 9.488281 0 6.75 0 L 2.234375 0 L 2.234375 -16.28125 L 7.21875 -16.28125 C 9.75 -16.28125 11.71875 -15.578125 13.125 -14.171875 C 14.53125 -12.765625 15.234375 -10.804688 15.234375 -8.296875 Z M 13.21875 -8.21875 C 13.21875 -10.34375 12.6875 -11.941406 11.625 -13.015625 C 10.5625 -14.097656 8.976562 -14.640625 6.875 -14.640625 L 4.125 -14.640625 L 4.125 -1.640625 L 6.4375 -1.640625 C 8.6875 -1.640625 10.378906 -2.191406 11.515625 -3.296875 C 12.648438 -4.410156 13.21875 -6.050781 13.21875 -8.21875 Z M 13.21875 -8.21875 "/></g></g></g><g fill="#000000" fill-opacity="1"><g transform="translate(355.893969, 553.252144)"><g><path d="M 11.3125 0 L 2.234375 0 L 2.234375 -16.28125 L 11.3125 -16.28125 L 11.3125 -14.59375 L 4.125 -14.59375 L 4.125 -9.34375 L 10.875 -9.34375 L 10.875 -7.6875 L 4.125 -7.6875 L 4.125 -1.6875 L 11.3125 -1.6875 Z M 11.3125 0 "/></g></g></g><g fill="#000000" fill-opacity="1"><g transform="translate(368.563814, 553.252144)"><g><path d="M 2.234375 0 L 2.234375 -16.28125 L 4.125 -16.28125 L 4.125 -1.71875 L 11.3125 -1.71875 L 11.3125 0 Z M 2.234375 0 "/></g></g></g><g fill="#000000" fill-opacity="1"><g transform="translate(380.388261, 553.252144)"><g><path d="M 12.46875 0 L 10.4375 -5.171875 L 3.921875 -5.171875 L 1.921875 0 L 0 0 L 6.4375 -16.34375 L 8.03125 -16.34375 L 14.421875 0 Z M 9.84375 -6.875 L 7.953125 -11.921875 C 7.710938 -12.554688 7.460938 -13.335938 7.203125 -14.265625 C 7.035156 -13.554688 6.800781 -12.773438 6.5 -11.921875 L 4.59375 -6.875 Z M 9.84375 -6.875 "/></g></g></g></svg>